<svg xmlns="http://www.w3.org/2000/svg" viewBox="0 0 456 60"><path fill="#222222" d="M76.164,40.223c0,0.5-0.022,0.923-0.063,1.265c-0.042,0.343-0.104,0.627-0.188,0.852 c-0.084,0.228-0.188,0.389-0.313,0.489c-0.125,0.1-0.271,0.149-0.438,0.149H60.303c-0.55,0-1.014-0.161-1.391-0.488 c-0.375-0.325-0.563-0.855-0.563-1.591v-29.44c0-0.167,0.053-0.316,0.163-0.451c0.109-0.133,0.289-0.242,0.54-0.327 c0.25-0.083,0.589-0.149,1.014-0.199c0.426-0.051,0.957-0.075,1.591-0.075c0.652,0,1.187,0.024,1.604,0.075 c0.417,0.05,0.751,0.117,1.001,0.199c0.251,0.085,0.43,0.193,0.54,0.327c0.108,0.135,0.163,0.284,0.163,0.451v26.083H75.16 c0.168,0,0.313,0.047,0.438,0.139s0.229,0.243,0.313,0.45c0.083,0.209,0.146,0.484,0.188,0.827 C76.142,39.3,76.164,39.722,76.164,40.223z"/><path fill="#434AA5" d="M9.272,32.109c0.042-0.343,0.104-0.618,0.188-0.827c0.083-0.207,0.188-0.358,0.313-0.45 c0.125-0.092,0.271-0.139,0.438-0.139h10.197V4.611c0-0.167,0.055-0.316,0.163-0.451c0.109-0.133,0.288-0.242,0.539-0.327 c0.25-0.083,0.584-0.149,1.002-0.199c0.418-0.051,0.952-0.075,1.604-0.075c0.634,0,1.165,0.024,1.591,0.075 c0.425,0.05,0.764,0.117,1.014,0.199c0.25,0.085,0.43,0.193,0.539,0.327c0.109,0.135,0.163,0.284,0.163,0.451v29.439 c0,0.735-0.188,1.266-0.563,1.591c-0.376,0.327-0.84,0.488-1.391,0.488H10.212c-0.167,0-0.313-0.05-0.438-0.149 c-0.125-0.101-0.229-0.262-0.313-0.489c-0.084-0.225-0.146-0.509-0.188-0.852c-0.041-0.342-0.063-0.765-0.063-1.265 C9.209,32.874,9.231,32.452,9.272,32.109z"/><path fill="#434AA5" d="M9.209,40.741c0-0.5,0.022-0.923,0.063-1.266c0.042-0.343,0.104-0.627,0.188-0.852 c0.083-0.227,0.188-0.388,0.313-0.489c0.125-0.1,0.271-0.149,0.438-0.149H25.07c0.55,0,1.014,0.162,1.391,0.488 c0.375,0.325,0.563,0.856,0.563,1.591v15.762c0,0.166-0.054,0.315-0.163,0.45c-0.109,0.134-0.289,0.242-0.539,0.327 c-0.25,0.082-0.589,0.149-1.014,0.199c-0.426,0.051-0.957,0.075-1.591,0.075c-0.652,0-1.186-0.024-1.604-0.075 c-0.417-0.05-0.751-0.117-1.002-0.199c-0.251-0.085-0.43-0.193-0.539-0.327c-0.108-0.135-0.163-0.284-0.163-0.45V43.423H10.212 c-0.167,0-0.313-0.047-0.438-0.139c-0.125-0.093-0.229-0.243-0.313-0.451c-0.084-0.208-0.146-0.484-0.188-0.826 C9.231,41.664,9.209,41.241,9.209,40.741z"/><path fill="#222222" d="M98.855,42.202c0,0.232-0.083,0.417-0.25,0.551c-0.167,0.134-0.43,0.229-0.79,0.287 c-0.359,0.06-0.889,0.088-1.591,0.088c-0.75,0-1.298-0.028-1.641-0.088c-0.342-0.058-0.585-0.153-0.726-0.287 c-0.142-0.134-0.214-0.318-0.214-0.551v-1.779c-0.919,0.984-1.966,1.754-3.144,2.305c-1.178,0.552-2.484,0.827-3.921,0.827 c-1.187,0-2.276-0.155-3.269-0.464c-0.995-0.309-1.854-0.768-2.582-1.377c-0.726-0.609-1.29-1.366-1.69-2.269 c-0.4-0.901-0.602-1.954-0.602-3.157c0-1.302,0.255-2.434,0.765-3.396c0.509-0.959,1.269-1.754,2.279-2.379 c1.01-0.627,2.267-1.09,3.771-1.391c1.502-0.301,3.249-0.451,5.235-0.451h2.181v-1.354c0-0.702-0.072-1.315-0.214-1.841 s-0.375-0.964-0.701-1.315c-0.327-0.351-0.761-0.61-1.303-0.777c-0.542-0.167-1.215-0.251-2.017-0.251 c-1.053,0-1.991,0.118-2.818,0.352c-0.827,0.233-1.558,0.493-2.192,0.776c-0.636,0.285-1.166,0.542-1.592,0.777 c-0.425,0.234-0.772,0.351-1.04,0.351c-0.185,0-0.346-0.058-0.488-0.176c-0.142-0.116-0.26-0.283-0.351-0.501 c-0.092-0.216-0.163-0.483-0.214-0.801c-0.05-0.316-0.074-0.668-0.074-1.052c0-0.517,0.041-0.928,0.125-1.228 c0.083-0.3,0.242-0.572,0.476-0.815c0.233-0.241,0.642-0.509,1.228-0.802c0.584-0.291,1.269-0.563,2.055-0.813 c0.785-0.251,1.641-0.455,2.567-0.614c0.928-0.158,1.883-0.238,2.87-0.238c1.753,0,3.252,0.171,4.497,0.514 c1.245,0.344,2.267,0.869,3.07,1.579c0.802,0.71,1.386,1.625,1.753,2.744c0.367,1.12,0.55,2.447,0.55,3.983V42.202z M92.668,32.631 h-2.406c-1.019,0-1.887,0.074-2.606,0.225c-0.718,0.151-1.303,0.377-1.753,0.677c-0.452,0.302-0.781,0.665-0.99,1.091 c-0.209,0.425-0.313,0.914-0.313,1.466c0,0.935,0.296,1.669,0.889,2.204c0.593,0.535,1.416,0.803,2.469,0.803 c0.885,0,1.699-0.227,2.442-0.678c0.743-0.45,1.5-1.109,2.269-1.979V32.631z"/><path fill="#222222" d="M119.717,40.397c0,0.485-0.024,0.898-0.076,1.241c-0.05,0.342-0.116,0.613-0.2,0.813 c-0.084,0.201-0.192,0.338-0.326,0.413c-0.133,0.075-0.284,0.112-0.452,0.112h-14.606c-0.452,0-0.797-0.149-1.039-0.45 c-0.243-0.301-0.365-0.793-0.365-1.479v-1.151c0-0.301,0.014-0.572,0.038-0.815c0.025-0.24,0.075-0.474,0.15-0.701 c0.075-0.225,0.176-0.455,0.301-0.688c0.125-0.234,0.288-0.492,0.488-0.777L112,23.986h-7.917c-0.318,0-0.573-0.2-0.765-0.601 s-0.288-1.043-0.288-1.93c0-0.483,0.021-0.889,0.063-1.214c0.041-0.325,0.104-0.585,0.187-0.777 c0.083-0.192,0.193-0.329,0.325-0.413c0.135-0.084,0.293-0.126,0.478-0.126h13.654c0.234,0,0.434,0.025,0.601,0.075 c0.167,0.051,0.305,0.144,0.414,0.277c0.108,0.134,0.192,0.317,0.25,0.551c0.059,0.233,0.087,0.525,0.087,0.877v1.227 c0,0.335-0.017,0.631-0.05,0.89c-0.034,0.259-0.083,0.506-0.15,0.74c-0.067,0.233-0.163,0.467-0.288,0.701 c-0.125,0.234-0.272,0.484-0.438,0.751l-8.318,12.905h8.818c0.151,0,0.293,0.033,0.426,0.1c0.134,0.065,0.247,0.191,0.339,0.376 c0.091,0.185,0.163,0.438,0.212,0.765C119.692,39.482,119.717,39.896,119.717,40.397z"/><path fill="#222222" d="M137.281,42.978l-2.706,7.918c-0.151,0.416-0.56,0.718-1.228,0.902c-0.669,0.184-1.646,0.275-2.931,0.275 c-0.668,0-1.202-0.03-1.603-0.087c-0.402-0.06-0.702-0.156-0.902-0.289c-0.202-0.134-0.31-0.3-0.327-0.501 c-0.016-0.2,0.034-0.441,0.15-0.728l2.981-7.491c-0.216-0.1-0.413-0.254-0.588-0.463c-0.176-0.208-0.306-0.43-0.389-0.665 l-7.691-20.545c-0.217-0.584-0.327-1.03-0.327-1.341c0-0.309,0.101-0.55,0.301-0.726c0.201-0.175,0.54-0.296,1.016-0.362 c0.476-0.068,1.106-0.102,1.891-0.102c0.719,0,1.286,0.015,1.704,0.039c0.418,0.024,0.743,0.087,0.978,0.187 c0.234,0.101,0.409,0.255,0.526,0.464c0.118,0.209,0.234,0.505,0.351,0.889l5.262,14.959h0.075l4.81-15.259 c0.101-0.434,0.229-0.723,0.389-0.864c0.158-0.143,0.421-0.248,0.79-0.313c0.367-0.068,1.01-0.102,1.928-0.102 c0.719,0,1.316,0.034,1.792,0.102c0.475,0.065,0.827,0.192,1.052,0.375c0.226,0.184,0.339,0.43,0.339,0.74 c0,0.308-0.067,0.673-0.201,1.089L137.281,42.978z"/><path fill="#222222" d="M178.421,40.223c0,0.5-0.022,0.923-0.063,1.265c-0.042,0.343-0.104,0.627-0.188,0.852 c-0.083,0.228-0.187,0.389-0.312,0.489c-0.125,0.1-0.272,0.149-0.439,0.149h-14.858c-0.55,0-1.014-0.161-1.389-0.488 c-0.376-0.325-0.565-0.855-0.565-1.591v-29.44c0-0.167,0.055-0.316,0.164-0.451c0.108-0.133,0.288-0.242,0.538-0.327 c0.251-0.083,0.589-0.149,1.015-0.199c0.426-0.051,0.956-0.075,1.591-0.075c0.651,0,1.185,0.024,1.603,0.075 c0.418,0.05,0.751,0.117,1.002,0.199c0.251,0.085,0.431,0.193,0.539,0.327c0.108,0.135,0.163,0.284,0.163,0.451v26.083h10.197 c0.167,0,0.314,0.047,0.439,0.139s0.229,0.243,0.312,0.45c0.084,0.209,0.146,0.484,0.188,0.827 C178.399,39.3,178.421,39.722,178.421,40.223z"/><path fill="#222222" d="M204.149,30.726c0,1.905-0.251,3.642-0.751,5.211c-0.502,1.57-1.262,2.923-2.281,4.059 c-1.019,1.137-2.296,2.014-3.833,2.631c-1.538,0.619-3.332,0.928-5.388,0.928c-1.987,0-3.716-0.275-5.186-0.827 c-1.47-0.551-2.689-1.353-3.659-2.405c-0.969-1.052-1.687-2.347-2.154-3.884c-0.467-1.535-0.701-3.29-0.701-5.261 c0-1.905,0.254-3.646,0.764-5.225c0.509-1.579,1.273-2.932,2.293-4.059c1.018-1.127,2.292-2.001,3.82-2.618 c1.528-0.618,3.32-0.928,5.374-0.928c2.005,0,3.743,0.272,5.212,0.814c1.47,0.544,2.685,1.34,3.646,2.393 c0.961,1.053,1.675,2.348,2.143,3.884C203.915,26.976,204.149,28.739,204.149,30.726z M197.659,30.977 c0-1.102-0.087-2.116-0.263-3.043c-0.175-0.928-0.473-1.733-0.889-2.418c-0.417-0.685-0.974-1.219-1.666-1.604 c-0.693-0.384-1.566-0.576-2.618-0.576c-0.936,0-1.755,0.171-2.456,0.514c-0.702,0.342-1.279,0.844-1.729,1.503 c-0.451,0.659-0.79,1.452-1.015,2.38c-0.225,0.927-0.338,1.983-0.338,3.17c0,1.102,0.092,2.116,0.276,3.045 c0.183,0.926,0.479,1.73,0.89,2.416c0.408,0.686,0.964,1.215,1.665,1.591c0.702,0.376,1.57,0.563,2.606,0.563 c0.952,0,1.779-0.17,2.481-0.513c0.702-0.343,1.277-0.839,1.728-1.491c0.452-0.65,0.786-1.439,1.003-2.368 C197.55,33.221,197.659,32.162,197.659,30.977z"/><path fill="#222222" d="M227.36,42.202c0,0.232-0.084,0.417-0.25,0.551c-0.168,0.134-0.43,0.229-0.79,0.287 c-0.359,0.06-0.89,0.088-1.591,0.088c-0.751,0-1.299-0.028-1.642-0.088c-0.343-0.058-0.585-0.153-0.727-0.287 c-0.142-0.134-0.213-0.318-0.213-0.551v-1.779c-0.918,0.984-1.966,1.754-3.144,2.305c-1.177,0.552-2.485,0.827-3.92,0.827 c-1.188,0-2.277-0.155-3.271-0.464c-0.995-0.309-1.854-0.768-2.581-1.377c-0.728-0.609-1.291-1.366-1.691-2.269 c-0.401-0.901-0.601-1.954-0.601-3.157c0-1.302,0.255-2.434,0.764-3.396c0.509-0.959,1.269-1.754,2.281-2.379 c1.01-0.627,2.267-1.09,3.771-1.391s3.249-0.451,5.236-0.451h2.18v-1.354c0-0.702-0.072-1.315-0.214-1.841 s-0.375-0.964-0.701-1.315c-0.325-0.351-0.76-0.61-1.303-0.777c-0.543-0.167-1.216-0.251-2.017-0.251 c-1.052,0-1.992,0.118-2.818,0.352c-0.827,0.233-1.558,0.493-2.192,0.776c-0.635,0.285-1.166,0.542-1.591,0.777 c-0.426,0.234-0.773,0.351-1.041,0.351c-0.183,0-0.346-0.058-0.488-0.176c-0.142-0.116-0.258-0.283-0.351-0.501 c-0.092-0.216-0.163-0.483-0.213-0.801c-0.05-0.316-0.075-0.668-0.075-1.052c0-0.517,0.042-0.928,0.125-1.228 c0.084-0.3,0.242-0.572,0.476-0.815c0.233-0.241,0.643-0.509,1.228-0.802c0.584-0.291,1.269-0.563,2.055-0.813 c0.784-0.251,1.641-0.455,2.568-0.614c0.926-0.158,1.882-0.238,2.868-0.238c1.753,0,3.253,0.171,4.498,0.514 c1.244,0.344,2.267,0.869,3.069,1.579c0.801,0.71,1.387,1.625,1.753,2.744c0.368,1.12,0.551,2.447,0.551,3.983V42.202z M221.172,32.631h-2.406c-1.019,0-1.887,0.074-2.604,0.225c-0.719,0.151-1.303,0.377-1.754,0.677 c-0.452,0.302-0.782,0.665-0.991,1.091c-0.209,0.425-0.312,0.914-0.312,1.466c0,0.935,0.295,1.669,0.889,2.204 c0.593,0.535,1.415,0.803,2.468,0.803c0.885,0,1.699-0.227,2.443-0.678c0.743-0.45,1.499-1.109,2.267-1.979V32.631z"/><path fill="#222222" d="M254.07,42.127c0,0.185-0.042,0.337-0.125,0.462c-0.084,0.127-0.226,0.229-0.426,0.314 c-0.2,0.083-0.473,0.142-0.813,0.175c-0.343,0.034-0.765,0.05-1.266,0.05c-0.536,0-0.969-0.016-1.303-0.05 c-0.334-0.033-0.606-0.092-0.814-0.175c-0.21-0.085-0.36-0.188-0.452-0.314c-0.092-0.125-0.138-0.277-0.138-0.462v-2.481 c-1.151,1.237-2.358,2.197-3.62,2.882c-1.261,0.685-2.66,1.027-4.197,1.027c-1.704,0-3.144-0.33-4.321-0.988 c-1.178-0.661-2.139-1.551-2.882-2.67s-1.282-2.426-1.616-3.922c-0.334-1.494-0.501-3.068-0.501-4.722 c0-1.988,0.213-3.774,0.64-5.363c0.425-1.586,1.048-2.939,1.867-4.059c0.817-1.12,1.836-1.979,3.057-2.581 c1.218-0.601,2.622-0.902,4.209-0.902c1.252,0,2.389,0.255,3.407,0.764c1.018,0.511,2.029,1.257,3.031,2.243V9.254 c0-0.167,0.046-0.317,0.137-0.451c0.092-0.135,0.26-0.247,0.501-0.339c0.242-0.091,0.563-0.163,0.964-0.213 c0.402-0.05,0.911-0.074,1.529-0.074s1.128,0.024,1.529,0.074c0.401,0.051,0.718,0.123,0.952,0.213 c0.233,0.092,0.401,0.204,0.5,0.339c0.101,0.134,0.15,0.283,0.15,0.451V42.127z M247.807,27.193 c-0.902-1.135-1.766-2.005-2.593-2.604c-0.827-0.603-1.691-0.904-2.594-0.904c-0.818,0-1.524,0.206-2.117,0.615 c-0.593,0.41-1.07,0.957-1.428,1.642c-0.359,0.685-0.626,1.449-0.801,2.293c-0.176,0.843-0.264,1.707-0.264,2.592 c0,0.936,0.075,1.846,0.226,2.732c0.149,0.885,0.396,1.676,0.739,2.366c0.341,0.693,0.797,1.249,1.365,1.667 c0.567,0.417,1.286,0.626,2.154,0.626c0.435,0,0.856-0.062,1.265-0.188c0.409-0.124,0.827-0.329,1.253-0.613 c0.425-0.284,0.865-0.656,1.315-1.115c0.451-0.459,0.944-1.023,1.478-1.691V27.193z"/><path fill="#222222" d="M266.357,12.21c0,1.269-0.259,2.147-0.776,2.632c-0.519,0.484-1.479,0.726-2.881,0.726 c-1.42,0-2.376-0.233-2.869-0.702c-0.493-0.468-0.739-1.312-0.739-2.531c0-1.269,0.255-2.149,0.764-2.643 c0.51-0.493,1.474-0.74,2.894-0.74c1.404,0,2.356,0.238,2.857,0.714C266.107,10.143,266.357,10.992,266.357,12.21z M265.882,42.127 c0,0.166-0.051,0.312-0.15,0.439c-0.101,0.124-0.272,0.228-0.514,0.312c-0.243,0.084-0.565,0.146-0.965,0.188 c-0.401,0.041-0.91,0.062-1.528,0.062s-1.128-0.021-1.529-0.062c-0.401-0.042-0.723-0.104-0.964-0.188 c-0.243-0.084-0.413-0.188-0.514-0.312c-0.101-0.127-0.15-0.273-0.15-0.439V19.828c0-0.167,0.05-0.314,0.15-0.439 c0.101-0.125,0.271-0.233,0.514-0.325c0.242-0.092,0.563-0.163,0.964-0.213s0.911-0.076,1.529-0.076s1.127,0.026,1.528,0.076 c0.4,0.05,0.722,0.121,0.965,0.213c0.242,0.092,0.413,0.2,0.514,0.325c0.1,0.125,0.15,0.272,0.15,0.439V42.127z"/><path fill="#222222" d="M292.701,42.127c0,0.166-0.05,0.312-0.149,0.439c-0.101,0.124-0.267,0.228-0.501,0.312 s-0.555,0.146-0.964,0.188c-0.409,0.041-0.915,0.062-1.516,0.062c-0.619,0-1.132-0.021-1.542-0.062 c-0.409-0.042-0.729-0.104-0.964-0.188c-0.233-0.084-0.401-0.188-0.5-0.312c-0.101-0.127-0.15-0.273-0.15-0.439V29.373 c0-1.086-0.079-1.938-0.238-2.555c-0.159-0.618-0.388-1.149-0.689-1.591c-0.3-0.442-0.688-0.786-1.165-1.027 c-0.476-0.243-1.031-0.364-1.667-0.364c-0.801,0-1.611,0.293-2.43,0.876c-0.818,0.585-1.671,1.438-2.556,2.558v14.857 c0,0.166-0.05,0.312-0.149,0.439c-0.101,0.124-0.272,0.228-0.514,0.312c-0.243,0.084-0.563,0.146-0.965,0.188 c-0.401,0.041-0.911,0.062-1.529,0.062c-0.617,0-1.127-0.021-1.528-0.062c-0.401-0.042-0.723-0.104-0.964-0.188 c-0.243-0.084-0.414-0.188-0.514-0.312c-0.101-0.127-0.15-0.273-0.15-0.439v-22.35c0-0.167,0.041-0.313,0.125-0.438 s0.234-0.229,0.452-0.313c0.216-0.084,0.497-0.146,0.839-0.188c0.341-0.041,0.772-0.063,1.29-0.063 c0.534,0,0.978,0.022,1.329,0.063c0.351,0.042,0.622,0.104,0.813,0.188c0.192,0.083,0.33,0.188,0.414,0.313 c0.083,0.125,0.125,0.271,0.125,0.438v2.582c1.236-1.337,2.493-2.339,3.771-3.006c1.278-0.668,2.61-1.003,3.997-1.003 c1.519,0,2.802,0.25,3.846,0.752c1.043,0.501,1.887,1.182,2.53,2.041c0.643,0.862,1.106,1.868,1.391,3.021 c0.284,1.152,0.425,2.539,0.425,4.16V42.127z"/><path fill="#222222" d="M318.469,21.331c0,0.802-0.092,1.394-0.275,1.778c-0.184,0.384-0.41,0.576-0.677,0.576h-2.63 c0.367,0.401,0.63,0.857,0.79,1.366c0.158,0.51,0.238,1.041,0.238,1.591c0,1.303-0.217,2.46-0.652,3.471 c-0.435,1.01-1.057,1.863-1.867,2.556c-0.81,0.692-1.788,1.22-2.931,1.576c-1.144,0.36-2.418,0.54-3.82,0.54 c-0.719,0-1.403-0.088-2.055-0.264c-0.651-0.174-1.152-0.379-1.503-0.613c-0.201,0.217-0.38,0.476-0.54,0.777 c-0.158,0.301-0.237,0.635-0.237,1.001c0,0.485,0.213,0.884,0.639,1.19c0.425,0.31,1.023,0.48,1.792,0.514l5.437,0.201 c1.269,0.049,2.401,0.23,3.396,0.538c0.993,0.309,1.829,0.743,2.505,1.303c0.676,0.559,1.193,1.231,1.553,2.017 c0.359,0.785,0.538,1.679,0.538,2.681c0,1.103-0.242,2.144-0.726,3.119c-0.484,0.979-1.21,1.826-2.18,2.544 s-2.184,1.286-3.645,1.703c-1.463,0.418-3.17,0.627-5.125,0.627c-1.904,0-3.529-0.149-4.873-0.45 c-1.344-0.302-2.447-0.719-3.307-1.254c-0.861-0.534-1.488-1.174-1.88-1.917c-0.393-0.742-0.588-1.557-0.588-2.442 c0-0.55,0.07-1.077,0.212-1.577c0.142-0.503,0.351-0.982,0.626-1.442c0.275-0.458,0.613-0.897,1.014-1.314 c0.402-0.418,0.86-0.818,1.378-1.202c-0.719-0.385-1.274-0.907-1.666-1.566c-0.393-0.66-0.589-1.382-0.589-2.166 c0-0.986,0.226-1.885,0.676-2.695c0.452-0.81,1.036-1.541,1.753-2.191c-0.584-0.586-1.052-1.287-1.402-2.106 c-0.351-0.818-0.526-1.836-0.526-3.056c0-1.303,0.229-2.468,0.688-3.495s1.099-1.897,1.917-2.606 c0.817-0.709,1.795-1.253,2.931-1.628c1.136-0.375,2.388-0.563,3.757-0.563c0.702,0,1.375,0.041,2.017,0.125 c0.643,0.083,1.241,0.199,1.792,0.35h7.09c0.284,0,0.514,0.185,0.69,0.551C318.382,19.845,318.469,20.462,318.469,21.331z M311.854,44.456c0-0.751-0.3-1.328-0.901-1.729c-0.603-0.4-1.428-0.618-2.481-0.652l-4.485-0.124 c-0.435,0.316-0.781,0.622-1.04,0.914c-0.26,0.292-0.468,0.573-0.626,0.84c-0.159,0.268-0.263,0.526-0.313,0.777 c-0.05,0.25-0.076,0.51-0.076,0.776c0,0.834,0.421,1.469,1.266,1.903c0.843,0.436,2.033,0.651,3.57,0.651 c0.952,0,1.753-0.096,2.406-0.287c0.65-0.192,1.176-0.447,1.577-0.765c0.401-0.318,0.685-0.673,0.853-1.065 C311.771,45.304,311.854,44.891,311.854,44.456z M310.377,26.616c0-1.202-0.335-2.137-1.002-2.805 c-0.669-0.668-1.613-1.003-2.832-1.003c-0.618,0-1.161,0.104-1.628,0.313c-0.467,0.209-0.856,0.493-1.165,0.853 c-0.31,0.359-0.539,0.777-0.69,1.253c-0.149,0.476-0.225,0.973-0.225,1.491c0,1.135,0.334,2.033,1.002,2.692 s1.594,0.989,2.781,0.989c0.635,0,1.186-0.1,1.654-0.301c0.467-0.199,0.856-0.477,1.165-0.826c0.31-0.351,0.542-0.755,0.702-1.215 C310.298,27.599,310.377,27.119,310.377,26.616z"/><path fill="#222222" d="M352.443,40.223c0,0.5-0.021,0.923-0.063,1.265c-0.041,0.343-0.103,0.627-0.187,0.852 c-0.085,0.228-0.188,0.389-0.313,0.489c-0.125,0.1-0.272,0.149-0.438,0.149h-14.858c-0.551,0-1.015-0.161-1.391-0.488 c-0.375-0.325-0.563-0.855-0.563-1.591v-29.44c0-0.167,0.054-0.316,0.163-0.451c0.108-0.133,0.288-0.242,0.539-0.327 c0.25-0.083,0.588-0.149,1.014-0.199c0.426-0.051,0.956-0.075,1.591-0.075c0.651,0,1.186,0.024,1.604,0.075 c0.417,0.05,0.751,0.117,1.002,0.199c0.25,0.085,0.43,0.193,0.539,0.327c0.108,0.135,0.162,0.284,0.162,0.451v26.083h10.198 c0.166,0,0.313,0.047,0.438,0.139c0.125,0.092,0.229,0.243,0.313,0.45c0.084,0.209,0.146,0.484,0.187,0.827 C352.423,39.3,352.443,39.722,352.443,40.223z"/><path fill="#222222" d="M378.171,30.726c0,1.905-0.25,3.642-0.751,5.211c-0.502,1.57-1.262,2.923-2.279,4.059 c-1.02,1.137-2.299,2.014-3.834,2.631c-1.537,0.619-3.332,0.928-5.387,0.928c-1.988,0-3.718-0.275-5.188-0.827 c-1.47-0.551-2.689-1.353-3.657-2.405c-0.969-1.052-1.688-2.347-2.155-3.884c-0.468-1.535-0.701-3.29-0.701-5.261 c0-1.905,0.254-3.646,0.764-5.225c0.509-1.579,1.272-2.932,2.292-4.059c1.019-1.127,2.293-2.001,3.82-2.618 c1.529-0.618,3.32-0.928,5.375-0.928c2.004,0,3.742,0.272,5.211,0.814c1.471,0.544,2.686,1.34,3.646,2.393 c0.96,1.053,1.675,2.348,2.142,3.884C377.937,26.976,378.171,28.739,378.171,30.726z M371.682,30.977 c0-1.102-0.088-2.116-0.264-3.043c-0.174-0.928-0.471-1.733-0.889-2.418c-0.418-0.685-0.975-1.219-1.666-1.604 c-0.693-0.384-1.566-0.576-2.619-0.576c-0.935,0-1.753,0.171-2.455,0.514c-0.7,0.342-1.277,0.844-1.728,1.503 c-0.452,0.659-0.79,1.452-1.016,2.38c-0.225,0.927-0.337,1.983-0.337,3.17c0,1.102,0.091,2.116,0.275,3.045 c0.182,0.926,0.479,1.73,0.889,2.416s0.965,1.215,1.666,1.591s1.569,0.563,2.606,0.563c0.952,0,1.777-0.17,2.479-0.513 s1.277-0.839,1.729-1.491c0.45-0.65,0.784-1.439,1.001-2.368C371.573,33.221,371.682,32.162,371.682,30.977z"/><path fill="#222222" d="M402.746,21.331c0,0.802-0.091,1.394-0.275,1.778c-0.184,0.384-0.409,0.576-0.677,0.576h-2.63 c0.366,0.401,0.63,0.857,0.788,1.366c0.159,0.51,0.239,1.041,0.239,1.591c0,1.303-0.218,2.46-0.652,3.471 c-0.435,1.01-1.057,1.863-1.865,2.556c-0.812,0.692-1.787,1.22-2.933,1.576c-1.144,0.36-2.418,0.54-3.82,0.54 c-0.718,0-1.403-0.088-2.055-0.264c-0.652-0.174-1.152-0.379-1.503-0.613c-0.201,0.217-0.381,0.476-0.54,0.777 c-0.157,0.301-0.236,0.635-0.236,1.001c0,0.485,0.212,0.884,0.638,1.19c0.426,0.31,1.023,0.48,1.792,0.514l5.437,0.201 c1.27,0.049,2.401,0.23,3.395,0.538c0.994,0.309,1.83,0.743,2.505,1.303c0.678,0.559,1.195,1.231,1.555,2.017 c0.358,0.785,0.538,1.679,0.538,2.681c0,1.103-0.242,2.144-0.727,3.119c-0.484,0.979-1.212,1.826-2.18,2.544 s-2.185,1.286-3.646,1.703c-1.461,0.418-3.17,0.627-5.124,0.627c-1.903,0-3.527-0.149-4.873-0.45 c-1.344-0.302-2.446-0.719-3.307-1.254c-0.861-0.534-1.487-1.174-1.879-1.917c-0.393-0.742-0.59-1.557-0.59-2.442 c0-0.55,0.072-1.077,0.214-1.577c0.142-0.503,0.351-0.982,0.626-1.442c0.276-0.458,0.614-0.897,1.015-1.314 c0.401-0.418,0.861-0.818,1.378-1.202c-0.717-0.385-1.273-0.907-1.666-1.566c-0.393-0.66-0.588-1.382-0.588-2.166 c0-0.986,0.225-1.885,0.676-2.695c0.451-0.81,1.035-1.541,1.755-2.191c-0.585-0.586-1.054-1.287-1.403-2.106 c-0.352-0.818-0.527-1.836-0.527-3.056c0-1.303,0.23-2.468,0.69-3.495c0.458-1.027,1.097-1.897,1.917-2.606 c0.816-0.709,1.795-1.253,2.93-1.628c1.137-0.375,2.391-0.563,3.759-0.563c0.702,0,1.373,0.041,2.017,0.125 c0.644,0.083,1.24,0.199,1.791,0.35h7.091c0.284,0,0.514,0.185,0.69,0.551C402.659,19.845,402.746,20.462,402.746,21.331z M396.132,44.456c0-0.751-0.3-1.328-0.902-1.729c-0.602-0.4-1.429-0.618-2.479-0.652l-4.484-0.124 c-0.436,0.316-0.781,0.622-1.041,0.914c-0.259,0.292-0.468,0.573-0.626,0.84c-0.159,0.268-0.263,0.526-0.313,0.777 c-0.051,0.25-0.074,0.51-0.074,0.776c0,0.834,0.421,1.469,1.264,1.903c0.845,0.436,2.033,0.651,3.571,0.651 c0.952,0,1.754-0.096,2.405-0.287c0.651-0.192,1.177-0.447,1.578-0.765c0.401-0.318,0.685-0.673,0.853-1.065 C396.048,45.304,396.132,44.891,396.132,44.456z M394.653,26.616c0-1.202-0.334-2.137-1.001-2.805 c-0.668-0.668-1.613-1.003-2.832-1.003c-0.617,0-1.161,0.104-1.629,0.313c-0.467,0.209-0.855,0.493-1.166,0.853 c-0.309,0.359-0.537,0.777-0.688,1.253c-0.15,0.476-0.225,0.973-0.225,1.491c0,1.135,0.334,2.033,1.002,2.692 s1.596,0.989,2.781,0.989c0.635,0,1.187-0.1,1.653-0.301c0.468-0.199,0.856-0.477,1.166-0.826c0.308-0.351,0.542-0.755,0.701-1.215 C394.573,27.599,394.653,27.119,394.653,26.616z"/><path fill="#222222" d="M428.339,30.726c0,1.905-0.25,3.642-0.75,5.211c-0.502,1.57-1.262,2.923-2.281,4.059 c-1.019,1.137-2.296,2.014-3.833,2.631c-1.538,0.619-3.333,0.928-5.388,0.928c-1.987,0-3.716-0.275-5.185-0.827 c-1.471-0.551-2.69-1.353-3.659-2.405c-0.968-1.052-1.687-2.347-2.154-3.884c-0.468-1.535-0.702-3.29-0.702-5.261 c0-1.905,0.255-3.646,0.764-5.225c0.511-1.579,1.275-2.932,2.293-4.059c1.019-1.127,2.293-2.001,3.82-2.618 c1.53-0.618,3.32-0.928,5.375-0.928c2.005,0,3.741,0.272,5.212,0.814c1.47,0.544,2.685,1.34,3.645,2.393 c0.96,1.053,1.676,2.348,2.142,3.884C428.104,26.976,428.339,28.739,428.339,30.726z M421.851,30.977 c0-1.102-0.087-2.116-0.264-3.043c-0.175-0.928-0.473-1.733-0.889-2.418c-0.418-0.685-0.974-1.219-1.667-1.604 c-0.693-0.384-1.565-0.576-2.618-0.576c-0.936,0-1.754,0.171-2.455,0.514s-1.278,0.844-1.729,1.503 c-0.451,0.659-0.79,1.452-1.016,2.38c-0.225,0.927-0.338,1.983-0.338,3.17c0,1.102,0.092,2.116,0.276,3.045 c0.184,0.926,0.479,1.73,0.89,2.416c0.408,0.686,0.965,1.215,1.665,1.591c0.702,0.376,1.57,0.563,2.606,0.563 c0.952,0,1.778-0.17,2.479-0.513c0.702-0.343,1.278-0.839,1.729-1.491c0.451-0.65,0.785-1.439,1.002-2.368 C421.741,33.221,421.851,32.162,421.851,30.977z"/><path fill="#222222" d="M448.291,35.812c0,1.27-0.239,2.39-0.714,3.358c-0.478,0.968-1.149,1.777-2.018,2.429 c-0.868,0.652-1.896,1.141-3.082,1.467c-1.187,0.325-2.471,0.488-3.857,0.488c-0.836,0-1.634-0.063-2.394-0.188 c-0.759-0.126-1.44-0.284-2.042-0.477c-0.601-0.192-1.103-0.388-1.503-0.589c-0.4-0.199-0.693-0.389-0.877-0.563 c-0.185-0.175-0.325-0.452-0.426-0.826c-0.1-0.376-0.151-0.932-0.151-1.667c0-0.484,0.018-0.872,0.052-1.165 c0.032-0.293,0.083-0.527,0.15-0.701c0.065-0.176,0.149-0.293,0.25-0.352c0.1-0.057,0.225-0.088,0.375-0.088 c0.185,0,0.456,0.105,0.813,0.314c0.36,0.207,0.807,0.438,1.343,0.688c0.534,0.252,1.155,0.486,1.865,0.702 c0.71,0.217,1.517,0.325,2.419,0.325c0.566,0,1.072-0.058,1.515-0.175c0.442-0.116,0.826-0.284,1.153-0.501 c0.325-0.218,0.571-0.492,0.739-0.827c0.166-0.334,0.25-0.718,0.25-1.152c0-0.501-0.154-0.931-0.464-1.29 c-0.309-0.359-0.718-0.672-1.227-0.939c-0.51-0.266-1.087-0.519-1.73-0.752c-0.643-0.232-1.303-0.493-1.979-0.777 c-0.677-0.284-1.337-0.608-1.98-0.977c-0.643-0.366-1.218-0.818-1.728-1.353c-0.509-0.534-0.918-1.178-1.228-1.93 c-0.309-0.751-0.463-1.654-0.463-2.706c0-1.07,0.209-2.051,0.626-2.945c0.417-0.894,1.018-1.656,1.804-2.292 c0.786-0.634,1.74-1.127,2.868-1.477c1.127-0.353,2.394-0.527,3.796-0.527c0.702,0,1.383,0.051,2.042,0.151 s1.257,0.226,1.792,0.376c0.534,0.149,0.985,0.313,1.353,0.488c0.367,0.175,0.631,0.326,0.79,0.451 c0.157,0.125,0.271,0.251,0.337,0.375c0.067,0.126,0.117,0.277,0.151,0.452c0.033,0.175,0.062,0.394,0.087,0.651 c0.025,0.26,0.038,0.581,0.038,0.964c0,0.452-0.013,0.818-0.038,1.103c-0.024,0.284-0.066,0.51-0.125,0.677 c-0.059,0.167-0.137,0.279-0.238,0.338c-0.101,0.058-0.217,0.087-0.351,0.087c-0.15,0-0.385-0.087-0.702-0.262 c-0.316-0.176-0.713-0.364-1.189-0.563c-0.476-0.202-1.026-0.389-1.654-0.565c-0.625-0.176-1.34-0.263-2.141-0.263 c-0.568,0-1.062,0.059-1.479,0.176c-0.418,0.118-0.761,0.284-1.027,0.501c-0.267,0.216-0.467,0.471-0.603,0.764 c-0.133,0.292-0.198,0.606-0.198,0.938c0,0.52,0.157,0.953,0.475,1.304c0.316,0.35,0.735,0.66,1.253,0.927 c0.518,0.268,1.106,0.518,1.766,0.751s1.329,0.488,2.005,0.765c0.678,0.275,1.345,0.597,2.004,0.965 c0.66,0.367,1.25,0.818,1.767,1.353c0.518,0.534,0.936,1.173,1.254,1.917C448.132,33.912,448.291,34.794,448.291,35.812z"/><path fill="#434AA5" d="M41.11,39.95c0,1.269-0.259,2.146-0.776,2.631c-0.519,0.484-1.479,0.727-2.881,0.727 c-1.42,0-2.376-0.233-2.869-0.701c-0.493-0.469-0.739-1.312-0.739-2.531c0-1.27,0.255-2.149,0.764-2.643 c0.51-0.493,1.474-0.74,2.894-0.74c1.404,0,2.356,0.238,2.857,0.715C40.859,37.883,41.11,38.731,41.11,39.95z"/></svg>

